PathFileType	4	(X/Y/Z)	/Users/itak/Documents/Research/Walk-IL/dataset/trc/00059_00006.trc
DataRate	CameraRate	NumFrames	NumMarkers	Units	OrigDataRate	OrigDataStartFrame	OrigNumFrames
100.000000	100.000000	4	53	mm	100.000000	375	750
Frame#	Time	RPSI			LPSI			L3			STRN			T10			C7			CLAV			RBAK			LBAK			LSHO			LUPA			LAEL			LAOL			LWTS			LWPS			LFRA			LIFD			LHPS			LHTS			RSHO			RUPA			RAEL			RAOL			RWTS			RWPS			RFRA			RIFD			RHTS			RHPS			RBHD			LFHD			RFHD			LBHD			LHIP			RHIP			RASI			LASI			LKNE			LTHI			LANK			LTIP			LTOE			LMT1			LMT5			LHEE			RKNE			RTHI			RANK			RTIP			RTOE			RMT1			RMT5			RHEE			
		X1	Y1	Z1	X2	Y2	Z2	X3	Y3	Z3	X4	Y4	Z4	X5	Y5	Z5	X6	Y6	Z6	X7	Y7	Z7	X8	Y8	Z8	X9	Y9	Z9	X10	Y10	Z10	X11	Y11	Z11	X12	Y12	Z12	X13	Y13	Z13	X14	Y14	Z14	X15	Y15	Z15	X16	Y16	Z16	X17	Y17	Z17	X18	Y18	Z18	X19	Y19	Z19	X20	Y20	Z20	X21	Y21	Z21	X22	Y22	Z22	X23	Y23	Z23	X24	Y24	Z24	X25	Y25	Z25	X26	Y26	Z26	X27	Y27	Z27	X28	Y28	Z28	X29	Y29	Z29	X30	Y30	Z30	X31	Y31	Z31	X32	Y32	Z32	X33	Y33	Z33	X34	Y34	Z34	X35	Y35	Z35	X36	Y36	Z36	X37	Y37	Z37	X38	Y38	Z38	X39	Y39	Z39	X40	Y40	Z40	X41	Y41	Z41	X42	Y42	Z42	X43	Y43	Z43	X44	Y44	Z44	X45	Y45	Z45	X46	Y46	Z46	X47	Y47	Z47	X48	Y48	Z48	X49	Y49	Z49	X50	Y50	Z50	X51	Y51	Z51	X52	Y52	Z52	X53	Y53	Z53	

376	3.75	636.45361328125	1021.388427734375	-448.3497924804688	572.1671752929688	1000.307800292969	-288.0241394042969	600.8672485351562	1071.638427734375	-366.0603637695312	382.2056884765625	1263.951049804688	-498.7106628417969	612.1801147460938	1206.657836914062	-361.3148803710938	561.74658203125	1471.52734375	-400.3594360351562	653.653076171875	1333.182983398438	-426.3040466308594	408.3745727539062	1378.369018554688	-486.2990112304688	534.2713623046875	1437.987915039062	-300.4742736816406	410.8987426757812	1440.803588867188	-287.5313110351562	393.0462341308594	1324.705932617188	-199.0783081054688	366.6751098632812	1114.777954101562	-159.3930969238281	459.708984375	1094.128051757812	-203.5423736572266	304.1313781738281	878.1228637695312	-255.4154052734375	328.2292785644531	864.58056640625	-176.420654296875	339.6672973632812	1005.721618652344	-158.8499603271484	288.082275390625	694.0723266601562	-280.9637145996094	296.0802307128906	785.7761840820312	-196.6373748779297	277.7927551269531	797.3331909179688	-263.6871337890625	595.8729858398438	1432.726440429688	-579.6314697265625	643.7994995117188	1370.35498046875	-624.2099609375	735.7510375976562	1127.362182617188	-643.8303833007812	676.4046020507812	1089.824584960938	-573.3604125976562	628.8534545898438	857.2418823242188	-691.7637939453125	717.36279296875	856.0518188476562	-694.10302734375	742.2957763671875	1045.550903320312	-660.8350830078125	652.61865234375	666.056396484375	-672.5474853515625	629.8056640625	749.4453735351562	-699.0864868164062	706.681640625	763.4615478515625	-710.448974609375	508.7233276367188	1661.876831054688	-410.0444030761719	326.2493286132812	1650.9267578125	-526.2195434570312	331.0232543945312	1654.4658203125	-399.6432189941406	497.8345947265625	1648.571166992188	-547.0092163085938	437.3111877441406	937.4866943359375	-250.6808624267578	613.7252807617188	955.6519165039062	-547.88232421875	492.8710021972656	969.721923828125	-588.33349609375	367.756591796875	952.439697265625	-352.6865844726562	287.6149291992188	484.5545959472656	-396.8253173828125	332.3265686035156	622.7546997070312	-331.4821166992188	672.44873046875	211.6104431152344	-249.0161895751953	488.2655029296875	334.2653198242188	-307.488525390625	564.4026489257812	72.09370422363281	-350.0042724609375	612.915283203125	116.8581237792969	-372.4654541015625	605.3533325195312	125.1604461669922	-261.4092712402344	732.9338989257812	265.7678833007812	-293.8913269042969	468.8877563476562	522.9715576171875	-615.7320556640625	516.7730102539062	790.5870971679688	-610.1341552734375	542.59619140625	31.29874038696289	-605.78076171875	483.1584167480469	395.5380859375	-623.9486694335938	330.1368408203125	40.5283088684082	-650.96923828125	370.8502807617188	48.8336067199707	-591.6328735351562	434.8508605957031	35.87176895141602	-667.2448120117188	566.2764282226562	39.14221572875977	-537.203369140625	
377	3.76	629.9505615234375	1022.353759765625	-453.2484130859375	567.6708374023438	1001.264831542969	-292.2144165039062	595.89111328125	1072.563232421875	-370.6748962402344	374.7143249511719	1264.770751953125	-500.5025634765625	606.8554077148438	1207.690063476562	-366.7069702148438	555.655517578125	1472.501342773438	-405.3589172363281	647.2536010742188	1334.197631835938	-432.6563720703125	400.9093322753906	1379.274291992188	-488.5939331054688	529.9068603515625	1439.055419921875	-305.0333557128906	406.7421875	1441.743041992188	-289.9375305175781	390.8491821289062	1325.914428710938	-200.8144683837891	366.083984375	1116.0673828125	-159.8764190673828	458.2153930664062	1095.559936523438	-206.0287933349609	302.3739929199219	878.5877685546875	-252.9272155761719	328.5637512207031	865.5708618164062	-174.4759063720703	339.6293334960938	1006.907287597656	-158.0577087402344	285.8577270507812	694.405517578125	-277.0807495117188	296.0353088378906	786.585205078125	-193.4951171875	275.7775268554688	797.7720336914062	-260.1202087402344	586.910400390625	1433.534790039062	-585.01171875	633.9846801757812	1371.053466796875	-630.3897705078125	724.7042846679688	1127.734741210938	-652.5287475585938	666.4359130859375	1090.10302734375	-581.0908813476562	615.7637329101562	858.3746337890625	-700.1575317382812	704.2902221679688	856.8118286132812	-704.0704345703125	730.5941162109375	1045.98779296875	-670.0430908203125	638.917724609375	666.9835205078125	-682.9733276367188	616.0839233398438	750.6718139648438	-708.4248657226562	692.7114868164062	764.2305908203125	-720.9611206054688	501.8698425292969	1662.832885742188	-414.0741882324219	317.8343200683594	1651.406982421875	-527.71533203125	324.4042053222656	1655.071166992188	-401.1828308105469	489.0814514160156	1649.327392578125	-550.8318481445312	433.0105895996094	939.012939453125	-253.1575775146484	606.296142578125	956.184814453125	-552.1563720703125	485.1140441894531	970.0992431640625	-591.4960327148438	362.719482421875	953.5772705078125	-354.4759216308594	271.6631164550781	489.9378356933594	-397.9580688476562	320.444091796875	626.9066162109375	-332.7549438476562	654.8936767578125	209.4961853027344	-262.1867065429688	471.8800048828125	335.1714477539062	-315.0877685546875	539.3192138671875	73.64317321777344	-359.6043395996094	589.7808227539062	115.7380294799805	-383.41650390625	584.577880859375	125.4744338989258	-272.5166625976562	715.9161987304688	261.3421325683594	-308.8026123046875	465.5044860839844	522.5869140625	-617.2382202148438	510.3880615234375	790.8016967773438	-612.8662109375	542.47314453125	31.42153549194336	-605.6321411132812	480.9437255859375	395.3574829101562	-624.8738403320312	329.910888671875	40.22295379638672	-651.064208984375	370.6249389648438	48.75172805786133	-591.700439453125	434.8070983886719	35.92658615112305	-667.2617797851562	566.0864868164062	39.34210205078125	-537.0078735351562	
378	3.77	623.4589233398438	1023.310668945312	-458.1019287109375	563.1802978515625	1002.216186523438	-296.3653869628906	590.8909912109375	1073.4658203125	-375.2687683105469	367.19970703125	1265.572875976562	-502.12109375	601.529296875	1208.680908203125	-371.9954223632812	549.5308227539062	1473.42431640625	-410.2204895019531	640.7891845703125	1335.162353515625	-438.9015808105469	393.4505004882812	1380.154541015625	-490.7147216796875	525.5299682617188	1440.069702148438	-309.4969787597656	402.6044311523438	1442.666381835938	-292.2351989746094	388.7243041992188	1327.104370117188	-202.4753875732422	365.5256042480469	1117.336059570312	-160.3810577392578	456.7245483398438	1096.968994140625	-208.5168762207031	300.7833251953125	879.0236206054688	-250.4878845214844	328.9400939941406	866.5857543945312	-172.5716705322266	339.6218872070312	1008.098388671875	-157.3308258056641	284.1793212890625	694.64208984375	-273.1808166503906	296.1461181640625	787.3842163085938	-190.4185180664062	274.1177673339844	798.11669921875	-256.6229248046875	577.8890380859375	1434.322143554688	-590.2137451171875	624.1140747070312	1371.750610351562	-636.3818969726562	713.5982666015625	1128.126342773438	-660.8594970703125	656.2928466796875	1090.39111328125	-588.5738525390625	602.6870727539062	859.5115356445312	-708.2053833007812	691.2042846679688	857.5748901367188	-713.5745239257812	718.858154296875	1046.441528320312	-678.8588256835938	625.1564331054688	667.9520263671875	-692.933837890625	602.3561401367188	751.9036865234375	-717.3571166992188	678.7793579101562	765.0677490234375	-730.9794921875	495.019775390625	1663.773559570312	-417.9324645996094	309.4649658203125	1651.875732421875	-529.0140380859375	317.8047180175781	1655.67138671875	-402.5726318359375	480.3154296875	1650.044677734375	-554.4348754882812	428.8357543945312	940.5179443359375	-255.5312957763672	598.7012329101562	956.6571044921875	-556.4561767578125	477.2788391113281	970.4100341796875	-594.5075073242188	357.6476745605469	954.6764526367188	-356.1204833984375	256.3812255859375	495.3791809082031	-398.4539794921875	309.0787963867188	631.0875244140625	-333.5235595703125	636.5355224609375	205.9131927490234	-275.1539611816406	455.3304748535156	335.3958740234375	-322.2900695800781	513.3751220703125	74.51275634765625	-369.1775512695312	565.7294311523438	113.9002075195312	-394.2648315429688	563.1456298828125	124.5417633056641	-283.5392761230469	698.0547485351562	255.4934844970703	-323.425048828125	462.1993103027344	522.202392578125	-618.61328125	504.0386962890625	790.9620361328125	-615.4768676757812	542.3702392578125	31.54974555969238	-605.5034790039062	478.8247375488281	395.1847229003906	-625.7012939453125	329.7127075195312	39.9621467590332	-651.1365966796875	370.4212341308594	48.70232391357422	-591.7548217773438	434.7601928710938	35.97513198852539	-667.2747802734375	565.8776245117188	39.43274688720703	-536.771484375	
379	3.78	616.9636840820312	1024.240478515625	-462.8955383300781	558.6838989257812	1003.1484375	-300.4639282226562	585.8412475585938	1074.334106445312	-379.8269348144531	359.6611633300781	1266.335083007812	-503.5756225585938	596.171875	1209.615844726562	-377.1922607421875	543.35498046875	1474.2783203125	-414.9398803710938	634.2406005859375	1336.06201171875	-445.02978515625	385.9967956542969	1380.982421875	-492.6601867675781	521.1240234375	1441.013305664062	-313.8611755371094	398.4812622070312	1443.547607421875	-294.4212951660156	386.6573181152344	1328.246704101562	-204.0638885498047	364.9786071777344	1118.55859375	-160.9032440185547	455.203857421875	1098.323974609375	-210.9985046386719	299.3265380859375	879.4118041992188	-248.1234283447266	329.3019104003906	867.5997314453125	-170.7201995849609	339.6006469726562	1009.272033691406	-156.6757507324219	283.0401000976562	694.7719116210938	-269.3218078613281	296.3717956542969	788.148193359375	-187.4320526123047	272.8135375976562	798.3432006835938	-253.2296295166016	568.7986450195312	1435.076782226562	-595.236083984375	614.1821899414062	1372.441284179688	-642.1897583007812	702.443359375	1128.52294921875	-668.8272705078125	646.015869140625	1090.6826171875	-595.7955322265625	589.6324462890625	860.6469116210938	-715.9046020507812	678.1115112304688	858.32568359375	-722.604248046875	707.10107421875	1046.898803710938	-687.280029296875	611.3431396484375	668.9463500976562	-702.3786010742188	588.6303100585938	753.1337890625	-725.8579711914062	664.8950805664062	765.9449462890625	-740.4739379882812	488.1778259277344	1664.669189453125	-421.612548828125	301.1556091308594	1652.337036132812	-530.119873046875	311.2231140136719	1656.255615234375	-403.8184509277344	471.5586547851562	1650.715209960938	-557.8240966796875	424.754150390625	941.98046875	-257.8182067871094	591.0455322265625	957.11962890625	-560.7361450195312	469.3680419921875	970.661865234375	-597.3837280273438	352.5094299316406	955.7260131835938	-357.6539611816406	241.7714996337891	500.799560546875	-398.3708801269531	298.2418212890625	635.2288208007812	-333.830810546875	617.3209228515625	200.9954986572266	-287.8321228027344	438.628173828125	334.9591674804688	-329.0715942382812	486.5858764648438	74.76895141601562	-378.5198669433594	540.6224975585938	111.4729614257812	-404.8823852539062	540.9342041015625	122.5298767089844	-294.3359680175781	679.3123779296875	248.3108978271484	-337.7042236328125	458.9515991210938	521.8134155273438	-619.8603515625	497.7053527832031	791.05859375	-617.9779052734375	542.28466796875	31.68377494812012	-605.3961791992188	476.7955627441406	395.0153198242188	-626.4373168945312	329.53564453125	39.73455047607422	-651.1871337890625	370.2432556152344	48.6755485534668	-591.791259765625	434.7068786621094	36.02033996582031	-667.2813720703125	565.6689453125	39.45580673217773	-536.5199584960938	
